<svg width="56" height="56" viewBox="0 0 56 56" fill="none" xmlns="http://www.w3.org/2000/svg">
<path d="M55.125 32.588L52.275 29.738C51.111 28.574 49.218 28.576 48.054 29.738L32.664 45.129L30.543 52.908L30.024 53.427C29.636 53.815 29.635 54.441 30.018 54.832L30.013 54.852L30.032 54.847C30.226 55.037 30.478 55.135 30.731 55.135C30.987 55.135 31.243 55.037 31.438 54.842L31.958 54.322L39.736 52.201L55.126 36.81C56.29 35.646 56.29 33.752 55.125 32.588ZM34.973 45.649L45.216 35.407L49.459 39.649L39.216 49.892L34.973 45.649ZM34.07 47.574L37.29 50.794L32.862 52.002L34.07 47.574ZM53.711 35.396L50.872 38.235L46.629 33.993L49.468 31.154C49.853 30.769 50.478 30.77 50.862 31.153L53.712 34.003C54.096 34.386 54.096 35.012 53.711 35.396Z" fill="url(#paint0_linear)"/>
<path d="M27 12.865C26.448 12.865 26 13.312 26 13.865C26 14.418 26.448 14.865 27 14.865H45C45.552 14.865 46 14.418 46 13.865C46 13.312 45.552 12.865 45 12.865H27Z" fill="url(#paint1_linear)"/>
<path d="M46 27.865C46 27.312 45.552 26.865 45 26.865H27C26.448 26.865 26 27.312 26 27.865C26 28.418 26.448 28.865 27 28.865H45C45.552 28.865 46 28.417 46 27.865Z" fill="url(#paint2_linear)"/>
<path d="M20.58 8.106C20.162 7.746 19.53 7.793 19.17 8.214L12.922 15.502L9.1 12.636C8.658 12.306 8.032 12.394 7.7 12.836C7.368 13.277 7.458 13.904 7.9 14.235L12.471 17.664C12.651 17.799 12.861 17.864 13.071 17.864C13.354 17.864 13.634 17.745 13.831 17.514L20.688 9.514C21.047 9.096 20.999 8.465 20.58 8.106Z" fill="url(#paint3_linear)"/>
<path d="M20.58 22.106C20.162 21.746 19.53 21.793 19.17 22.214L12.922 29.502L9.1 26.636C8.658 26.305 8.032 26.395 7.7 26.836C7.368 27.277 7.458 27.904 7.9 28.235L12.471 31.664C12.651 31.799 12.861 31.864 13.071 31.864C13.354 31.864 13.634 31.745 13.831 31.514L20.688 23.514C21.047 23.096 20.999 22.465 20.58 22.106Z" fill="url(#paint4_linear)"/>
<path d="M19.169 37.214L12.921 44.501L9.1 41.635C8.658 41.304 8.032 41.394 7.7 41.835C7.368 42.276 7.458 42.903 7.9 43.234L12.471 46.663C12.651 46.798 12.861 46.863 13.071 46.863C13.354 46.863 13.634 46.744 13.831 46.513L20.688 38.514C21.047 38.095 20.999 37.464 20.58 37.105C20.161 36.746 19.529 36.794 19.169 37.214Z" fill="url(#paint5_linear)"/>
<path d="M25 52.865H12.176C6.565 52.865 2 48.3 2 42.689V13.04C2 7.429 6.565 2.865 12.176 2.865H41.824C47.435 2.865 52 7.429 52 13.04V24.864C52 25.417 52.448 25.864 53 25.864C53.552 25.864 54 25.417 54 24.864V13.04C54 6.326 48.538 0.863998 41.824 0.863998H12.176C5.462 0.864998 0 6.326 0 13.04V42.688C0 49.402 5.462 54.864 12.176 54.864H25C25.552 54.864 26 54.417 26 53.864C26 53.311 25.552 52.865 25 52.865Z" fill="url(#paint6_linear)"/>
<defs>
<linearGradient id="paint0_linear" x1="27" y1="0.863998" x2="27" y2="54.864" gradientUnits="userSpaceOnUse">
<stop stop-color="#BB94FF"/>
<stop offset="1" stop-color="#3A75F3"/>
</linearGradient>
<linearGradient id="paint1_linear" x1="27" y1="0.863998" x2="27" y2="54.864" gradientUnits="userSpaceOnUse">
<stop stop-color="#BB94FF"/>
<stop offset="1" stop-color="#3A75F3"/>
</linearGradient>
<linearGradient id="paint2_linear" x1="27" y1="0.863998" x2="27" y2="54.864" gradientUnits="userSpaceOnUse">
<stop stop-color="#BB94FF"/>
<stop offset="1" stop-color="#3A75F3"/>
</linearGradient>
<linearGradient id="paint3_linear" x1="27" y1="0.863998" x2="27" y2="54.864" gradientUnits="userSpaceOnUse">
<stop stop-color="#BB94FF"/>
<stop offset="1" stop-color="#3A75F3"/>
</linearGradient>
<linearGradient id="paint4_linear" x1="27" y1="0.863998" x2="27" y2="54.864" gradientUnits="userSpaceOnUse">
<stop stop-color="#BB94FF"/>
<stop offset="1" stop-color="#3A75F3"/>
</linearGradient>
<linearGradient id="paint5_linear" x1="27" y1="0.863998" x2="27" y2="54.864" gradientUnits="userSpaceOnUse">
<stop stop-color="#BB94FF"/>
<stop offset="1" stop-color="#3A75F3"/>
</linearGradient>
<linearGradient id="paint6_linear" x1="27" y1="0.863998" x2="27" y2="54.864" gradientUnits="userSpaceOnUse">
<stop stop-color="#BB94FF"/>
<stop offset="1" stop-color="#3A75F3"/>
</linearGradient>
</defs>
</svg>
